<svg width="24" height="28" viewBox="0 0 24 28" fill="none" xmlns="http://www.w3.org/2000/svg">
<g clip-path="url(#clip0_747_2638)">
<path d="M17.2736 0.0273438C17.7985 0.390923 17.8201 0.688603 17.3577 1.15217C16.9271 1.58278 16.4976 2.0134 16.0545 2.45764C17.8928 3.80289 18.8063 5.6151 18.8859 7.89429C14.3366 7.89429 9.81569 7.89429 5.25391 7.89429C5.32208 5.62419 6.24011 3.8097 8.08301 2.45651C7.64103 2.0134 7.21042 1.58278 6.7798 1.15217C6.31624 0.688603 6.33783 0.390923 6.86274 0.0273438C6.95137 0.0273438 7.03999 0.0273438 7.12861 0.0273438C7.27632 0.136418 7.43652 0.232993 7.56718 0.35911C7.92508 0.701102 8.27048 1.05559 8.62042 1.4044C9.00332 1.78729 9.00332 1.78616 9.49415 1.58051C9.60777 1.53279 9.72366 1.49075 9.84182 1.45553C11.5779 0.936292 13.2867 0.979467 14.9569 1.72026C15.0944 1.78161 15.1751 1.75207 15.2739 1.64982C15.6932 1.22034 16.1181 0.794269 16.5499 0.377289C16.6873 0.244355 16.8544 0.143235 17.0077 0.0273438C17.0964 0.0273438 17.185 0.0273438 17.2736 0.0273438ZM9.22146 5.92528C9.69184 5.92755 10.0656 5.56057 10.0725 5.09132C10.0793 4.6164 9.69071 4.22328 9.21919 4.22782C8.7579 4.23237 8.38069 4.6164 8.38069 5.0811C8.38182 5.54807 8.75449 5.92301 9.22146 5.92528ZM14.899 5.92528C15.3682 5.92983 15.7454 5.56397 15.7545 5.09587C15.7636 4.62208 15.375 4.22555 14.9047 4.22782C14.4422 4.23009 14.065 4.61185 14.0639 5.07655C14.0616 5.54579 14.4309 5.92074 14.899 5.92528Z" fill="#001219"/>
<path d="M18.8775 9.06909C18.8775 9.19066 18.8775 9.29519 18.8775 9.39972C18.8775 12.9923 18.8775 16.5838 18.8764 20.1764C18.8764 20.3355 18.8821 20.4968 18.8571 20.6536C18.7753 21.1604 18.373 21.5115 17.8402 21.5308C17.4436 21.5455 17.0471 21.5342 16.6256 21.5342C16.6199 21.6626 16.6108 21.7648 16.6108 21.8671C16.6097 23.0351 16.6142 24.2031 16.6086 25.3711C16.604 26.2948 16.0586 27.0038 15.236 27.1765C14.1669 27.4014 13.2102 26.5573 13.2034 25.3722C13.1966 24.2133 13.2023 23.0544 13.2023 21.8955C13.2023 21.7898 13.2023 21.6842 13.2023 21.5592C12.4467 21.5592 11.7093 21.5592 10.9356 21.5592C10.9356 21.666 10.9356 21.7682 10.9356 21.8716C10.9356 23.0396 10.9401 24.2076 10.9344 25.3756C10.9299 26.3289 10.3493 27.0447 9.47785 27.1924C8.57572 27.3446 7.60656 26.63 7.55997 25.7142C7.51112 24.7257 7.53384 23.7338 7.52702 22.7431C7.52475 22.3545 7.52702 21.9659 7.52702 21.541C7.15549 21.541 6.80441 21.5433 6.45333 21.541C5.68299 21.5342 5.26374 21.1308 5.26261 20.3639C5.25806 16.6565 5.26033 12.9492 5.26033 9.24179C5.26033 9.19066 5.26715 9.13954 5.2717 9.0725C9.80053 9.06909 14.318 9.06909 18.8775 9.06909Z" fill="#001219"/>
<path d="M4.1134 14.7103C4.1134 16.0112 4.11794 17.311 4.11113 18.6119C4.10658 19.5095 3.49759 20.2526 2.68976 20.3707C1.64333 20.5241 0.72416 19.7583 0.716206 18.6608C0.696891 16.0419 0.701436 13.423 0.713934 10.8041C0.718479 9.88489 1.38883 9.16 2.25801 9.06343C3.06243 8.97481 3.85662 9.55085 4.06341 10.3871C4.10772 10.5643 4.10999 10.7552 4.11113 10.9393C4.11454 12.1982 4.1134 13.4548 4.1134 14.7103Z" fill="#001219"/>
<path d="M20.0227 14.7103C20.0227 13.4275 20.0193 12.1448 20.0238 10.862C20.0273 10.061 20.4613 9.41341 21.1487 9.16572C22.2883 8.75328 23.421 9.60428 23.4256 10.8859C23.4313 12.7436 23.4301 14.6024 23.4256 16.46C23.4233 17.2826 23.4483 18.1075 23.3835 18.9255C23.3176 19.7652 22.4848 20.4446 21.6815 20.4037C20.8021 20.3583 20.0545 19.6629 20.0375 18.7983C20.0102 17.436 20.0307 16.0737 20.0307 14.7114C20.0284 14.7103 20.025 14.7103 20.0227 14.7103Z" fill="#001219"/>
</g>
<defs>
<clipPath id="clip0_747_2638">
<rect x="0.703125" y="0.0273438" width="22.7271" height="27.1844" fill="white"/>
</clipPath>
</defs>
</svg>
