<svg width="24" height="29" viewBox="0 0 24 29" fill="none" xmlns="http://www.w3.org/2000/svg">
<path d="M19.3534 27.009C17.88 28.4389 16.2544 28.216 14.7048 27.5418C13.0575 26.8541 11.5515 26.8106 9.81166 27.5418C7.64507 28.477 6.49517 28.2051 5.19032 27.009C-2.17664 19.4246 -1.08926 7.87122 7.28352 7.43627C9.31419 7.54501 10.7359 8.55898 11.932 8.64326C13.7099 8.2817 15.4116 7.24598 17.3145 7.3819C19.6007 7.56676 21.3106 8.46928 22.4524 10.0922C17.7495 12.9194 18.8641 19.1174 23.1836 20.8572C22.3192 23.1271 21.2101 25.3698 19.3507 27.028L19.3534 27.009ZM11.7689 7.35472C11.5487 3.98386 14.2808 1.21105 17.4233 0.939209C17.8555 4.82657 13.8893 7.7353 11.7689 7.35472Z" fill="#001219"/>
</svg>
