<svg width="163" height="54" viewBox="0 0 163 54" fill="none" xmlns="http://www.w3.org/2000/svg">
<g clip-path="url(#clip0_1881_305)">
<path d="M150.02 0.0001755H12.9876C12.4881 0.0001755 11.9946 0.0001755 11.4964 0.0028755C11.0794 0.0055755 10.6657 0.013419 10.2447 0.0200205C9.33004 0.0306879 8.41753 0.110438 7.5151 0.258579C6.61393 0.409945 5.741 0.695312 4.92582 1.10503C4.11164 1.51821 3.3677 2.0551 2.72098 2.69622C2.07087 3.33554 1.52896 4.0745 1.11607 4.88469C0.702051 5.69327 0.414965 6.55974 0.264733 7.45417C0.113073 8.34748 0.0314634 9.25108 0.0206365 10.1569C0.0079958 10.5708 0.0066609 10.9861 0 11.4V42.6043C0.0066609 43.0235 0.0079958 43.4295 0.0206365 43.8489C0.0314667 44.7546 0.113076 45.6582 0.264733 46.5514C0.41455 47.4464 0.701653 48.3133 1.11607 49.1222C1.52877 49.9298 2.07076 50.6658 2.72098 51.3015C3.36524 51.9455 4.10967 52.4827 4.92582 52.8928C5.741 53.3036 6.61383 53.5907 7.5151 53.7444C8.41768 53.8913 9.3301 53.9711 10.2447 53.983C10.6657 53.9922 11.0794 53.9975 11.4964 53.9975C11.9946 54.0002 12.4882 54.0002 12.9876 54.0002H150.02C150.509 54.0002 151.007 54.0002 151.496 53.9975C151.911 53.9975 152.337 53.9922 152.752 53.983C153.665 53.9717 154.576 53.8919 155.476 53.7444C156.38 53.5896 157.256 53.3026 158.076 52.8928C158.891 52.4825 159.635 51.9453 160.278 51.3015C160.927 50.6633 161.47 49.9278 161.888 49.1222C162.299 48.3127 162.584 47.4459 162.731 46.5514C162.883 45.658 162.968 44.7547 162.984 43.8489C162.989 43.4295 162.989 43.0235 162.989 42.6043C163 42.1138 163 41.6261 163 41.1277V12.874C163 12.3796 163 11.8891 162.989 11.4C162.989 10.9861 162.989 10.5708 162.984 10.1568C162.968 9.25095 162.883 8.34754 162.731 7.45412C162.583 6.56021 162.299 5.6938 161.888 4.88464C161.047 3.26069 159.714 1.93881 158.076 1.10491C157.256 0.696191 156.38 0.4109 155.476 0.258458C154.576 0.109664 153.665 0.029886 152.752 0.0198315C152.337 0.0132435 151.911 0.0053325 151.496 0.0027C151.007 0 150.509 0 150.02 0V0.0001755Z" fill="#637381"/>
<path d="M11.5034 52.8187C11.0884 52.8187 10.6834 52.8134 10.2716 52.8042C9.41861 52.7932 8.5676 52.7196 7.72556 52.584C6.94041 52.45 6.17981 52.2007 5.46884 51.8444C4.7644 51.491 4.12189 51.0276 3.56592 50.4719C3.00191 49.9229 2.53235 49.286 2.17584 48.5867C1.8154 47.8828 1.56595 47.1283 1.43619 46.3495C1.29606 45.5126 1.22024 44.6664 1.20939 43.8182C1.20076 43.5335 1.18945 42.5855 1.18945 42.5855V11.3998C1.18945 11.3998 1.20149 10.4664 1.20946 10.1921C1.21985 9.34525 1.29523 8.50038 1.43494 7.66484C1.56494 6.88389 1.81458 6.12721 2.17521 5.421C2.53041 4.72213 2.99737 4.08481 3.55798 3.53377C4.11796 2.97749 4.76253 2.51172 5.46817 2.15344C6.1775 1.79823 6.93667 1.55069 7.72024 1.41912C8.56504 1.28218 9.419 1.20815 10.275 1.19764L11.504 1.18115H151.49L152.734 1.1983C153.582 1.20829 154.428 1.28166 155.265 1.41779C156.057 1.55102 156.824 1.80028 157.541 2.15739C158.955 2.87943 160.105 4.02177 160.831 5.4243C161.186 6.12563 161.431 6.87614 161.56 7.65034C161.701 8.49274 161.78 9.34425 161.796 10.1981C161.8 10.5804 161.8 10.9911 161.8 11.3998C161.811 11.906 161.811 12.3879 161.811 12.8737V41.1274C161.811 41.6178 161.811 42.0964 161.8 42.5789C161.8 43.0179 161.8 43.4201 161.795 43.834C161.779 44.6726 161.701 45.5089 161.562 46.3362C161.435 47.1207 161.187 47.881 160.827 48.5907C160.468 49.2825 160.001 49.9138 159.443 50.4614C158.887 51.02 158.243 51.4861 157.537 51.8418C156.822 52.2009 156.056 52.4511 155.265 52.584C154.423 52.7203 153.572 52.7939 152.719 52.8042C152.32 52.8134 151.902 52.8187 151.497 52.8187L150.02 52.8214L11.5034 52.8187Z" fill="#001219"/>
<path d="M33.7391 27.4061C33.7538 26.2793 34.0558 25.1745 34.617 24.1945C35.1782 23.2144 35.9805 22.391 36.9491 21.8008C36.3338 20.9299 35.522 20.2131 34.5783 19.7075C33.6345 19.2018 32.5848 18.9212 31.5126 18.888C29.2252 18.65 27.0077 20.2445 25.8421 20.2445C24.6539 20.2445 22.8593 18.9116 20.9268 18.951C19.6768 18.991 18.4585 19.3513 17.3908 19.9967C16.323 20.642 15.4421 21.5505 14.834 22.6336C12.1996 27.154 14.1646 33.7974 16.6881 37.4513C17.9507 39.2406 19.4263 41.2392 21.3571 41.1683C23.2465 41.0906 23.9521 39.9742 26.2327 39.9742C28.4922 39.9742 29.1543 41.1683 31.1242 41.1232C33.1516 41.0906 34.429 39.3261 35.6472 37.5199C36.5544 36.245 37.2525 34.836 37.7155 33.345C36.5377 32.8513 35.5325 32.0248 34.8254 30.9687C34.1183 29.9126 33.7405 28.6736 33.7391 27.4061Z" fill="white"/>
<path d="M30.018 16.4848C31.1234 15.1696 31.668 13.4792 31.5361 11.7725C29.8473 11.9483 28.2873 12.7482 27.1669 14.0129C26.6192 14.6308 26.1996 15.3496 25.9323 16.1282C25.665 16.9068 25.5551 17.7301 25.609 18.5508C26.4538 18.5594 27.2894 18.378 28.0531 18.0201C28.8168 17.6622 29.4887 17.1373 30.018 16.4848Z" fill="white"/>
<path d="M57.6224 36.6384H51.1748L49.6265 41.1696H46.8955L53.0026 24.4053H55.8399L61.947 41.1696H59.1694L57.6224 36.6384ZM51.8426 34.5474H56.9534L54.4339 27.1936H54.3634L51.8426 34.5474Z" fill="white"/>
<path d="M75.1364 35.0594C75.1364 38.8576 73.0852 41.2979 69.9898 41.2979C69.2056 41.3386 68.4258 41.1596 67.7396 40.7814C67.0533 40.4032 66.4884 39.8411 66.1095 39.1595H66.0509V45.2134H63.5195V28.9475H65.9698V30.9804H66.0164C66.4127 30.3021 66.9872 29.7429 67.6786 29.3625C68.3701 28.982 69.1527 28.7944 69.9432 28.8196C73.0732 28.8196 75.1364 31.2718 75.1364 35.0594ZM72.5345 35.0594C72.5345 32.5849 71.2442 30.958 69.2754 30.958C67.3413 30.958 66.0403 32.6192 66.0403 35.0594C66.0403 37.5221 67.3413 39.1714 69.2754 39.1714C71.2442 39.1714 72.5345 37.5564 72.5345 35.0594Z" fill="white"/>
<path d="M88.7096 35.0594C88.7096 38.8576 86.6584 41.2979 83.563 41.2979C82.7789 41.3386 81.9991 41.1595 81.3128 40.7814C80.6266 40.4032 80.0617 39.8411 79.6828 39.1595H79.6242V45.2134H77.0928V28.9475H79.543V30.9804H79.5896C79.9859 30.3021 80.5604 29.7429 81.2518 29.3624C81.9433 28.982 82.7259 28.7944 83.5164 28.8196C86.6465 28.8196 88.7096 31.2718 88.7096 35.0594ZM86.1077 35.0594C86.1077 32.5849 84.8174 30.958 82.8487 30.958C80.9145 30.958 79.6136 32.6191 79.6136 35.0594C79.6136 37.5221 80.9145 39.1714 82.8487 39.1714C84.8174 39.1714 86.1077 37.5564 86.1077 35.0594H86.1077Z" fill="white"/>
<path d="M97.6812 36.4988C97.8687 38.1613 99.4983 39.2528 101.725 39.2528C103.859 39.2528 105.394 38.1613 105.394 36.6623C105.394 35.361 104.468 34.5819 102.276 34.048L100.084 33.5246C96.9775 32.781 95.5355 31.3414 95.5355 29.0052C95.5355 26.1127 98.0789 24.126 101.69 24.126C105.265 24.126 107.715 26.1127 107.797 29.0052H105.242C105.089 27.3322 103.694 26.3224 101.654 26.3224C99.6153 26.3224 98.2199 27.3441 98.2199 28.8312C98.2199 30.0164 99.1111 30.7138 101.291 31.2477L103.155 31.7012C106.626 32.5147 108.067 33.8963 108.067 36.3484C108.067 39.4848 105.547 41.4492 101.537 41.4492C97.7862 41.4492 95.2535 39.531 95.0898 36.4987L97.6812 36.4988Z" fill="white"/>
<path d="M113.53 26.0547V28.9472H115.875V30.9339H113.53V37.6721C113.53 38.7188 113.999 39.2066 115.03 39.2066C115.309 39.2018 115.587 39.1825 115.863 39.1486V41.1235C115.4 41.2093 114.928 41.2482 114.457 41.2395C111.96 41.2395 110.986 40.3101 110.986 37.9397V30.9339H109.193V28.9472H110.986V26.0547H113.53Z" fill="white"/>
<path d="M117.233 35.0591C117.233 31.2134 119.519 28.7969 123.082 28.7969C126.658 28.7969 128.933 31.2134 128.933 35.0591C128.933 38.9153 126.67 41.3213 123.082 41.3213C119.496 41.3213 117.233 38.9153 117.233 35.0591ZM126.353 35.0591C126.353 32.421 125.134 30.8641 123.082 30.8641C121.031 30.8641 119.813 32.4329 119.813 35.0591C119.813 37.7077 121.031 39.2528 123.082 39.2528C125.134 39.2528 126.353 37.7077 126.353 35.0591H126.353Z" fill="white"/>
<path d="M131.021 28.9474H133.435V31.0278H133.493C133.657 30.378 134.041 29.8038 134.581 29.4017C135.121 28.9995 135.785 28.794 136.46 28.8195C136.752 28.8185 137.042 28.8499 137.327 28.9131V31.2598C136.959 31.1483 136.575 31.0971 136.19 31.1082C135.822 31.0934 135.455 31.1577 135.115 31.2966C134.775 31.4355 134.469 31.6457 134.218 31.9129C133.968 32.18 133.778 32.4977 133.663 32.8442C133.548 33.1907 133.51 33.5578 133.552 33.9202V41.1699H131.021L131.021 28.9474Z" fill="white"/>
<path d="M148.998 37.5798C148.657 39.7986 146.477 41.3213 143.687 41.3213C140.1 41.3213 137.873 38.939 137.873 35.1171C137.873 31.2833 140.112 28.7969 143.581 28.7969C146.993 28.7969 149.139 31.1198 149.139 34.8257V35.6853H140.428V35.8369C140.388 36.2867 140.445 36.7399 140.595 37.1663C140.745 37.5926 140.985 37.9825 141.299 38.3099C141.613 38.6374 141.993 38.8949 142.415 39.0654C142.837 39.2359 143.291 39.3155 143.746 39.2989C144.344 39.3545 144.945 39.2172 145.458 38.9074C145.971 38.5977 146.369 38.132 146.594 37.5798L148.998 37.5798ZM140.44 33.9319H146.606C146.629 33.5274 146.567 33.1227 146.424 32.7431C146.282 32.3634 146.061 32.0171 145.777 31.7258C145.493 31.4345 145.152 31.2046 144.774 31.0504C144.396 30.8962 143.99 30.8211 143.581 30.8298C143.169 30.8273 142.76 30.9058 142.379 31.0607C141.997 31.2156 141.651 31.4439 141.359 31.7323C141.067 32.0207 140.835 32.3636 140.677 32.7411C140.52 33.1186 140.439 33.5233 140.44 33.9319V33.9319Z" fill="white"/>
<path d="M51.5247 11.787C52.0554 11.7492 52.5879 11.8287 53.0839 12.0196C53.5799 12.2106 54.0269 12.5082 54.3928 12.8911C54.7586 13.274 55.0342 13.7326 55.1995 14.2338C55.3649 14.735 55.416 15.2664 55.349 15.7895C55.349 18.3629 53.9457 19.8422 51.5247 19.8422H48.5889V11.787H51.5247ZM49.8512 18.703H51.3837C51.7629 18.7255 52.1424 18.6639 52.4946 18.5226C52.8467 18.3814 53.1627 18.1641 53.4194 17.8866C53.6762 17.6091 53.8673 17.2783 53.9788 16.9184C54.0903 16.5585 54.1194 16.1784 54.064 15.8059C54.1154 15.4349 54.0833 15.0572 53.9701 14.6999C53.8569 14.3426 53.6653 14.0146 53.4092 13.7393C53.153 13.4639 52.8385 13.2482 52.4884 13.1075C52.1382 12.9668 51.7609 12.9046 51.3837 12.9253H49.8512V18.703Z" fill="white"/>
<path d="M56.7754 16.8001C56.7368 16.4006 56.783 15.9976 56.9108 15.6168C57.0386 15.236 57.2453 14.8859 57.5177 14.5889C57.79 14.2919 58.122 14.0546 58.4923 13.8922C58.8626 13.7299 59.263 13.646 59.668 13.646C60.0729 13.646 60.4733 13.7299 60.8436 13.8922C61.2139 14.0546 61.5459 14.2919 61.8183 14.5889C62.0906 14.8859 62.2973 15.236 62.4252 15.6168C62.553 15.9976 62.5991 16.4006 62.5605 16.8001C62.5998 17.2 62.5543 17.6036 62.4268 17.985C62.2993 18.3664 62.0927 18.7172 61.8203 19.0148C61.5479 19.3123 61.2156 19.5501 60.845 19.7128C60.4743 19.8755 60.0734 19.9596 59.668 19.9596C59.2626 19.9596 58.8616 19.8755 58.491 19.7128C58.1203 19.5501 57.7881 19.3123 57.5157 19.0148C57.2432 18.7172 57.0366 18.3664 56.9092 17.985C56.7817 17.6036 56.7361 17.2 56.7754 16.8001ZM61.3154 16.8001C61.3154 15.4824 60.7182 14.7118 59.67 14.7118C58.6178 14.7118 58.0259 15.4824 58.0259 16.8001C58.0259 18.1284 58.6178 18.893 59.67 18.893C60.7182 18.893 61.3155 18.1231 61.3155 16.8001H61.3154Z" fill="white"/>
<path d="M70.2506 19.8421H68.9949L67.7272 15.365H67.6314L66.369 19.8421H65.1253L63.4346 13.7632H64.6624L65.7611 18.4018H65.8516L67.1126 13.7632H68.2739L69.535 18.4018H69.6307L70.7242 13.7632H71.9347L70.2506 19.8421Z" fill="white"/>
<path d="M73.3565 13.763H74.5217V14.7287H74.6122C74.7656 14.3818 75.0244 14.0911 75.3525 13.8969C75.6806 13.7028 76.0617 13.6149 76.4426 13.6456C76.741 13.6234 77.0407 13.668 77.3194 13.7761C77.5981 13.8843 77.8486 14.0531 78.0525 14.2703C78.2564 14.4874 78.4084 14.7472 78.4972 15.0305C78.586 15.3138 78.6094 15.6132 78.5656 15.9066V19.8419H77.3551V16.2079C77.3551 15.231 76.9268 14.7452 76.0315 14.7452C75.8289 14.7358 75.6266 14.77 75.4386 14.8454C75.2505 14.9207 75.0811 15.0355 74.942 15.1818C74.8029 15.3281 74.6974 15.5025 74.6326 15.6931C74.5679 15.8836 74.5455 16.0857 74.5669 16.2857V19.8419H73.3564L73.3565 13.763Z" fill="white"/>
<path d="M80.4941 11.3901H81.7046V19.8421H80.4941V11.3901Z" fill="white"/>
<path d="M83.3877 16.8002C83.3491 16.4007 83.3953 15.9976 83.5231 15.6168C83.651 15.236 83.8577 14.8859 84.1301 14.5889C84.4025 14.2919 84.7345 14.0546 85.1048 13.8922C85.4751 13.7299 85.8756 13.646 86.2806 13.646C86.6855 13.646 87.086 13.7299 87.4563 13.8922C87.8267 14.0546 88.1587 14.2919 88.431 14.5889C88.7034 14.8859 88.9102 15.236 89.038 15.6168C89.1659 15.9976 89.212 16.4007 89.1735 16.8002C89.2127 17.2001 89.1671 17.6038 89.0396 17.9852C88.9121 18.3666 88.7054 18.7173 88.433 19.0149C88.1605 19.3124 87.8283 19.5502 87.4576 19.7129C87.0869 19.8756 86.686 19.9597 86.2806 19.9597C85.8752 19.9597 85.4742 19.8756 85.1035 19.7129C84.7328 19.5502 84.4006 19.3124 84.1282 19.0149C83.8557 18.7173 83.6491 18.3666 83.5216 17.9852C83.394 17.6038 83.3484 17.2001 83.3877 16.8002ZM87.9277 16.8002C87.9277 15.4825 87.3304 14.7119 86.2822 14.7119C85.23 14.7119 84.6381 15.4825 84.6381 16.8002C84.6381 18.1285 85.2301 18.8931 86.2822 18.8931C87.3304 18.8931 87.9277 18.1232 87.9277 16.8002H87.9277Z" fill="white"/>
<path d="M90.4473 18.1231C90.4473 17.0289 91.2693 16.3981 92.7286 16.3084L94.39 16.2135V15.6888C94.39 15.0467 93.9617 14.6842 93.1343 14.6842C92.4586 14.6842 91.9903 14.9301 91.856 15.3599H90.684C90.8078 14.3157 91.7988 13.646 93.1902 13.646C94.7279 13.646 95.5952 14.4047 95.5952 15.6888V19.8423H94.4299V18.988H94.3342C94.1398 19.2944 93.8668 19.5442 93.5431 19.7119C93.2194 19.8796 92.8567 19.9592 92.4918 19.9424C92.2343 19.969 91.9741 19.9418 91.7279 19.8625C91.4816 19.7833 91.2549 19.6538 91.0623 19.4824C90.8696 19.311 90.7154 19.1014 90.6095 18.8673C90.5035 18.6332 90.4483 18.3797 90.4473 18.1231ZM94.39 17.6037V17.0955L92.8922 17.1904C92.0475 17.2464 91.6644 17.5312 91.6644 18.0671C91.6644 18.6142 92.1433 18.9326 92.8018 18.9326C92.9947 18.952 93.1896 18.9326 93.3749 18.8758C93.5602 18.819 93.732 18.7258 93.8802 18.6018C94.0284 18.4779 94.1499 18.3256 94.2375 18.1541C94.325 17.9826 94.3769 17.7955 94.39 17.6037Z" fill="white"/>
<path d="M97.1865 16.8C97.1865 14.8792 98.1829 13.6623 99.7326 13.6623C100.116 13.6448 100.496 13.7358 100.829 13.9247C101.162 14.1136 101.434 14.3925 101.613 14.7288H101.704V11.3901H102.914V19.8421H101.755V18.8817H101.659C101.466 19.2158 101.184 19.4913 100.845 19.6782C100.505 19.8652 100.121 19.9565 99.7326 19.9423C98.1722 19.9424 97.1865 18.7255 97.1865 16.8ZM98.437 16.8C98.437 18.0894 99.0502 18.8653 100.076 18.8653C101.096 18.8653 101.727 18.0782 101.727 16.8053C101.727 15.5384 101.089 14.7401 100.076 14.7401C99.0568 14.7401 98.4369 15.5212 98.4369 16.8H98.437Z" fill="white"/>
<path d="M107.923 16.8001C107.884 16.4006 107.93 15.9976 108.058 15.6168C108.186 15.236 108.393 14.8859 108.665 14.5889C108.937 14.2919 109.269 14.0546 109.64 13.8922C110.01 13.7299 110.411 13.646 110.815 13.646C111.22 13.646 111.621 13.7299 111.991 13.8922C112.361 14.0546 112.693 14.2919 112.966 14.5889C113.238 14.8859 113.445 15.236 113.573 15.6168C113.7 15.9976 113.747 16.4006 113.708 16.8001C113.747 17.2 113.702 17.6036 113.574 17.985C113.447 18.3664 113.24 18.7172 112.968 19.0148C112.695 19.3123 112.363 19.5501 111.992 19.7128C111.622 19.8755 111.221 19.9596 110.815 19.9596C110.41 19.9596 110.009 19.8755 109.638 19.7128C109.268 19.5501 108.936 19.3123 108.663 19.0148C108.391 18.7172 108.184 18.3664 108.057 17.985C107.929 17.6036 107.884 17.2 107.923 16.8001ZM112.463 16.8001C112.463 15.4824 111.866 14.7118 110.817 14.7118C109.765 14.7118 109.173 15.4824 109.173 16.8001C109.173 18.1284 109.765 18.893 110.817 18.893C111.866 18.893 112.463 18.1231 112.463 16.8001Z" fill="white"/>
<path d="M115.332 13.763H116.497V14.7287H116.588C116.741 14.3818 117 14.0911 117.328 13.8969C117.656 13.7028 118.037 13.6149 118.418 13.6456C118.717 13.6234 119.016 13.668 119.295 13.7761C119.574 13.8843 119.824 14.0531 120.028 14.2703C120.232 14.4874 120.384 14.7472 120.473 15.0305C120.562 15.3138 120.585 15.6132 120.541 15.9066V19.8419H119.331V16.2079C119.331 15.231 118.902 14.7452 118.007 14.7452C117.804 14.7358 117.602 14.77 117.414 14.8454C117.226 14.9207 117.057 15.0355 116.918 15.1818C116.778 15.3281 116.673 15.5025 116.608 15.6931C116.543 15.8836 116.521 16.0857 116.543 16.2857V19.8419H115.332V13.763Z" fill="white"/>
<path d="M127.381 12.2495V13.7907H128.71V14.8012H127.381V17.927C127.381 18.5638 127.646 18.8426 128.248 18.8426C128.402 18.8421 128.557 18.8329 128.71 18.8149V19.8142C128.492 19.8528 128.272 19.8733 128.051 19.8756C126.705 19.8756 126.169 19.4062 126.169 18.2342V14.8011H125.195V13.7906H126.169V12.2495H127.381Z" fill="white"/>
<path d="M130.363 11.3901H131.563V14.7401H131.659C131.82 14.39 132.086 14.0976 132.42 13.9027C132.755 13.7079 133.142 13.62 133.529 13.6511C133.826 13.6351 134.123 13.6842 134.398 13.795C134.674 13.9058 134.921 14.0754 135.123 14.2919C135.325 14.5083 135.476 14.7662 135.566 15.0472C135.655 15.3282 135.681 15.6253 135.642 15.9174V19.8421H134.43V16.2133C134.43 15.2424 133.973 14.7506 133.118 14.7506C132.91 14.7337 132.701 14.7621 132.505 14.8337C132.309 14.9053 132.132 15.0185 131.984 15.1653C131.837 15.3121 131.724 15.4889 131.653 15.6835C131.583 15.8781 131.555 16.0857 131.574 16.2918V19.8421H130.363L130.363 11.3901Z" fill="white"/>
<path d="M142.7 18.201C142.535 18.7566 142.179 19.2372 141.693 19.5587C141.207 19.8802 140.623 20.0221 140.042 19.9597C139.638 19.9703 139.236 19.8936 138.865 19.7349C138.494 19.5762 138.162 19.3394 137.893 19.0409C137.623 18.7424 137.422 18.3893 137.304 18.0061C137.186 17.6229 137.154 17.2189 137.209 16.822C137.155 16.4239 137.188 16.019 137.306 15.6347C137.424 15.2504 137.623 14.8957 137.892 14.5945C138.16 14.2934 138.49 14.0528 138.86 13.8892C139.23 13.7256 139.632 13.6427 140.037 13.6461C141.743 13.6461 142.773 14.8017 142.773 16.7106V17.1292H138.442V17.1964C138.423 17.4195 138.451 17.6441 138.525 17.8557C138.599 18.0673 138.716 18.2613 138.87 18.4253C139.024 18.5892 139.21 18.7195 139.418 18.8078C139.626 18.8961 139.85 18.9404 140.075 18.9379C140.365 18.9724 140.658 18.9207 140.918 18.7895C141.178 18.6583 141.393 18.4534 141.535 18.201L142.7 18.201ZM138.442 16.2419H141.54C141.555 16.0379 141.527 15.833 141.458 15.6403C141.388 15.4477 141.279 15.2715 141.137 15.1232C140.995 14.9749 140.823 14.8577 140.632 14.7792C140.442 14.7006 140.237 14.6625 140.03 14.6672C139.821 14.6646 139.613 14.7035 139.419 14.7817C139.225 14.86 139.049 14.9759 138.901 15.1226C138.753 15.2694 138.636 15.4441 138.557 15.6363C138.478 15.8285 138.439 16.0345 138.442 16.2419H138.442Z" fill="white"/>
</g>
<defs>
<clipPath id="clip0_1881_305">
<rect width="163" height="54" fill="white"/>
</clipPath>
</defs>
</svg>
