<svg width="28" height="28" viewBox="0 0 28 28" fill="none" xmlns="http://www.w3.org/2000/svg">
<g clip-path="url(#clip0_747_2614)">
<path d="M0.449219 12.7482C0.519303 12.2328 0.574522 11.7146 0.663012 11.2021C0.970252 9.43014 1.618 7.78846 2.58786 6.27491C2.61052 6.24022 2.63883 6.20908 2.68131 6.15527C2.74361 6.25438 2.79529 6.33225 2.84272 6.41367C4.77394 9.75791 6.70941 13.0986 8.63284 16.4471C9.57297 18.0838 10.9286 19.1549 12.7799 19.5676C13.8 19.7949 14.8152 19.7383 15.8579 19.4282C15.8176 19.5188 15.7971 19.5797 15.7659 19.6335C14.3968 22.0065 13.0255 24.3773 11.6614 26.7531C11.5707 26.9117 11.4844 26.9534 11.3074 26.9188C6.04254 25.8937 1.69942 21.5279 0.712567 16.2524C0.600715 15.6549 0.535586 15.049 0.449219 14.4472C0.449219 13.8809 0.449219 13.3145 0.449219 12.7482Z" fill="#001219"/>
<path d="M13.2988 27.1899C13.3406 27.0859 13.371 26.9754 13.4263 26.8792C15.3546 23.5342 17.2816 20.1885 19.2185 16.8485C19.8082 15.8327 20.1572 14.7545 20.1445 13.5758C20.1275 11.9278 19.5364 10.5091 18.3931 9.32117C18.3378 9.26382 18.2826 9.20719 18.2274 9.14985C18.2217 9.14418 18.2203 9.13498 18.2069 9.10596C21.0917 9.10596 23.968 9.10596 26.8691 9.10596C27.1508 9.87972 27.3483 10.691 27.4715 11.52C27.5345 11.9462 27.5798 12.3745 27.6329 12.802C27.6329 13.3507 27.6329 13.8993 27.6329 14.448C27.6181 14.5166 27.5982 14.5839 27.5883 14.6533C27.4963 15.2819 27.4375 15.9183 27.3094 16.5392C26.2206 21.8083 21.7139 26.1203 16.4087 26.9811C15.9047 27.0632 15.3964 27.1213 14.8902 27.1906C14.3607 27.1899 13.8298 27.1899 13.2988 27.1899Z" fill="#001219"/>
<path d="M14.8907 0.00559074C15.3976 0.0749675 15.908 0.120983 16.4099 0.216553C20.7807 1.04978 23.9947 3.46239 26.1191 7.35387C26.1354 7.3836 26.1453 7.41687 26.1758 7.49191C26.0526 7.49191 25.9521 7.49191 25.8523 7.49191C21.9955 7.49191 18.138 7.52731 14.2819 7.48058C11.1904 7.44306 8.7615 9.50525 8.12012 12.109C8.11021 12.1494 8.09393 12.189 8.06632 12.2725C6.60799 9.74807 5.16949 7.25617 3.72461 4.75436C4.40634 3.95653 5.15958 3.25214 5.99776 2.63908C8.08189 1.11491 10.411 0.247702 12.9864 0.0480663C13.0551 0.0424029 13.123 0.0197493 13.191 0.00488281C13.758 0.00559074 14.3244 0.00559074 14.8907 0.00559074Z" fill="#001219"/>
<path d="M14.0416 9.08472C16.5257 9.08401 18.5497 11.1023 18.5547 13.5843C18.5589 16.0826 16.5371 18.1101 14.0416 18.1101C11.5469 18.1101 9.52435 16.0812 9.52931 13.5836C9.53355 11.1009 11.5554 9.08613 14.0416 9.08472Z" fill="#001219"/>
</g>
<defs>
<clipPath id="clip0_747_2614">
<rect width="27.1844" height="27.1844" fill="white" transform="translate(0.449219 0.00561523)"/>
</clipPath>
</defs>
</svg>
