<svg width="28" height="28" viewBox="0 0 28 28" fill="none" xmlns="http://www.w3.org/2000/svg">
<g clip-path="url(#clip0_747_2630)">
<path d="M17.9321 2.1189C17.9487 2.1189 17.9652 2.1189 17.9818 2.1189C18.1475 2.45659 18.2907 2.80742 18.4842 3.12934C19.267 4.43411 20.2739 5.56938 21.2874 6.69807C22.4308 7.97131 23.4887 9.3017 24.1727 10.8857C24.1846 10.9133 24.2072 10.9356 24.2251 10.9606C24.0527 9.75962 23.6279 8.64275 23.1221 7.54493C23.2361 7.59354 23.3336 7.6507 23.4224 7.72034C24.1833 8.31557 24.764 9.06322 25.2014 9.90941C26.4071 12.2443 26.6577 14.7323 26.2514 17.286C25.92 19.37 25.0264 21.2279 23.6703 22.854C21.7288 25.1817 19.2544 26.6264 16.2485 27.1585C15.7858 27.2407 15.3165 27.286 14.8499 27.3477C14.3528 27.3477 13.8556 27.3477 13.3578 27.3477C13.1205 27.3175 12.8839 27.286 12.6466 27.2571C9.98862 26.9352 7.64416 25.8991 5.72392 24.0589C2.48131 20.9513 1.18546 17.1803 2.07963 12.7522C2.59863 10.1794 3.9316 8.08891 6.03611 6.48981C6.18326 6.37812 6.35096 6.29403 6.58229 6.15212C6.58229 6.73421 6.56373 7.24206 6.5876 7.74728C6.61212 8.25907 6.67907 8.76889 6.97138 9.24849C7.82114 8.30571 8.76701 7.53639 9.92168 6.99963C9.91836 7.06927 9.923 7.11789 9.91306 7.16256C9.72945 7.94175 9.73078 8.7229 9.87528 9.50865C9.92565 9.7813 9.99724 10.0204 10.2624 10.1807C10.436 10.2852 10.5799 10.4442 10.7211 10.594C11.2301 11.1334 11.8174 11.5683 12.4769 11.908C12.8806 12.1162 13.2882 12.3173 13.6932 12.5229C13.8457 12.6004 13.9961 12.6812 14.1685 12.7719C13.8947 13.2765 13.5116 13.6378 13.0708 13.9308C12.8965 14.0464 12.6625 14.1174 12.4517 14.1272C11.777 14.1588 11.1154 14.2416 10.4818 14.482C9.6983 14.779 9.05667 15.2468 8.67686 16.0102C8.6245 16.1146 8.58407 16.2493 8.60196 16.3597C8.65234 16.6658 8.7047 16.9786 8.81275 17.2683C10.0171 20.4987 13.8039 21.6826 16.7131 20.1268C18.2423 19.3089 19.0158 17.9463 19.1994 16.2605C19.4049 14.3822 18.5982 12.4506 16.8159 11.4343C16.7555 11.3995 16.6979 11.3594 16.6051 11.3002C17.1387 11.2155 17.6265 11.2405 18.0938 11.3857C18.5598 11.5302 19.0092 11.7266 19.4599 11.8981C19.446 11.8738 19.4248 11.8311 19.3996 11.791C18.8309 10.8988 18.0872 10.1807 17.1539 9.67553C15.402 8.72684 13.5945 8.64275 11.7485 9.39762C11.4469 9.52114 11.2745 9.4942 11.1877 9.30564C11.0956 9.10395 11.1917 8.95416 11.5019 8.81751C12.166 8.52449 12.862 8.35105 13.5845 8.2906C13.741 8.27746 13.786 8.22359 13.8159 8.07708C14.0823 6.77429 14.5993 5.57726 15.3695 4.48601C16.0549 3.51564 16.9219 2.74172 17.9321 2.1189Z" fill="#001219"/>
</g>
<defs>
<clipPath id="clip0_747_2630">
<rect width="26.3023" height="27.1844" fill="white" transform="translate(0.874023 0.00561523)"/>
</clipPath>
</defs>
</svg>
