<svg width="16" height="16" viewBox="0 0 16 16" fill="none" xmlns="http://www.w3.org/2000/svg">
<g clip-path="url(#clip0_1881_346)">
<path d="M1.33301 8.00016C1.33301 11.6822 4.31767 14.6668 7.99967 14.6668C11.6817 14.6668 14.6663 11.6822 14.6663 8.00016C14.6663 4.31816 11.6817 1.3335 7.99967 1.3335C4.31767 1.3335 1.33301 4.31816 1.33301 8.00016Z" stroke="#637381" stroke-linecap="round" stroke-linejoin="round"/>
<path d="M8.66626 1.3667C8.66626 1.3667 10.6663 4.00003 10.6663 8.00003C10.6663 12 8.66626 14.6334 8.66626 14.6334M7.33293 14.6334C7.33293 14.6334 5.33293 12 5.33293 8.00003C5.33293 4.00003 7.33293 1.3667 7.33293 1.3667M1.75293 10.3334H14.2463M1.75293 5.6667H14.2463" stroke="#637381" stroke-linecap="round" stroke-linejoin="round"/>
</g>
<defs>
<clipPath id="clip0_1881_346">
<rect width="16" height="16" fill="white"/>
</clipPath>
</defs>
</svg>
