<svg width="28" height="29" viewBox="0 0 28 29" fill="none" xmlns="http://www.w3.org/2000/svg">
<rect x="0.728516" y="0.968994" width="27.1844" height="27.1844" rx="4.07766" fill="#001219"/>
<g clip-path="url(#clip0_747_2663)">
<path d="M4.8951 19.094H6.46871V12.3952H4.8951V19.094ZM5.67856 11.5166C6.17138 11.5166 6.55717 11.1375 6.55717 10.6632C6.55717 10.183 6.17138 9.80396 5.67856 9.80396C5.19242 9.80396 4.80664 10.183 4.80664 10.6632C4.80664 11.1375 5.19242 11.5166 5.67856 11.5166ZM11.7076 9.82254C9.0473 9.82254 7.37854 11.6362 7.37854 14.5374C7.37854 17.4386 9.04655 19.2456 11.7076 19.2456C14.3621 19.2456 16.0301 17.4379 16.0301 14.5374C16.0301 11.637 14.3621 9.82254 11.7076 9.82254ZM11.7076 11.2133C13.3318 11.2133 14.368 12.5022 14.368 14.5374C14.368 16.566 13.3318 17.8556 11.7076 17.8556C10.0775 17.8556 9.0473 16.5667 9.0473 14.5374C9.0473 12.5022 10.0775 11.2133 11.7076 11.2133ZM16.6946 16.528C16.7645 18.2094 18.1418 19.2456 20.2402 19.2456C22.4457 19.2456 23.8364 18.1589 23.8364 16.427C23.8364 15.0682 23.053 14.3033 21.2014 13.8803L20.1525 13.6402C19.0338 13.3749 18.573 13.0211 18.573 12.4145C18.573 11.6563 19.268 11.1509 20.2982 11.1509C21.3411 11.1509 22.0547 11.663 22.1313 12.5156H23.6855C23.6476 10.9108 22.3208 9.82328 20.3109 9.82328C18.3262 9.82328 16.9169 10.9167 16.9169 12.5342C16.9169 13.8357 17.7129 14.6452 19.3943 15.0303L20.5762 15.3083C21.7261 15.5803 22.1937 15.9594 22.1937 16.6165C22.1937 17.3747 21.4288 17.9181 20.3294 17.9181C19.2174 17.9181 18.3767 17.368 18.2756 16.528H16.6946Z" fill="white"/>
</g>
<defs>
<clipPath id="clip0_747_2663">
<rect width="19.0291" height="9.44168" fill="white" transform="translate(4.80664 9.80396)"/>
</clipPath>
</defs>
</svg>
