<svg width="128" height="40" viewBox="0 0 128 40" fill="none" xmlns="http://www.w3.org/2000/svg">
<path d="M49.874 13.4406H51.928V14.7767H51.9679C52.267 14.1983 52.7058 13.7995 53.2442 13.5403C53.7826 13.281 54.3809 13.1614 55.019 13.1614C55.7967 13.1614 56.4748 13.301 57.0531 13.5802C57.6314 13.8593 58.11 14.2382 58.4889 14.6969C58.8678 15.1755 59.1469 15.7339 59.3464 16.372C59.5458 17.0101 59.6255 17.6882 59.6255 18.4061C59.6255 19.0641 59.5458 19.7023 59.3663 20.3404C59.1868 20.9586 58.9276 21.517 58.5886 21.9956C58.2296 22.4742 57.7909 22.8531 57.2724 23.1323C56.734 23.4114 56.1158 23.571 55.378 23.571C55.0589 23.571 54.7398 23.551 54.4207 23.4912C54.1017 23.4314 53.8025 23.3317 53.5034 23.212C53.2043 23.0924 52.9451 22.9328 52.6858 22.7334C52.4465 22.534 52.2272 22.2947 52.0676 22.0355H52.0477V26.9611H49.874V13.4406ZM57.4718 18.3662C57.4718 17.9275 57.412 17.4887 57.2924 17.07C57.1727 16.6512 57.0132 16.2723 56.7739 15.9532C56.5545 15.6342 56.2554 15.3749 55.9164 15.1755C55.5774 14.9761 55.1785 14.8764 54.7398 14.8764C53.8225 14.8764 53.1445 15.1954 52.6659 15.8336C52.2072 16.4717 51.9679 17.3093 51.9679 18.3662C51.9679 18.8647 52.0277 19.3234 52.1474 19.7422C52.267 20.1609 52.4465 20.5398 52.6858 20.839C52.9251 21.1381 53.2242 21.3774 53.5433 21.5569C53.8823 21.7363 54.2812 21.8161 54.7199 21.8161C55.2184 21.8161 55.6372 21.7164 55.9762 21.517C56.3152 21.3176 56.5944 21.0583 56.8337 20.7193C57.0531 20.4002 57.2126 20.0213 57.3123 19.6225C57.432 19.2237 57.4718 18.8049 57.4718 18.3662Z" fill="black"/>
<path d="M69.7563 23.2919H67.6225V21.9159H67.5826C67.3234 22.4145 66.9246 22.8133 66.3861 23.1124C65.8676 23.4116 65.3292 23.5512 64.7708 23.5512C63.4746 23.5512 62.5374 23.2321 61.9591 22.5939C61.3808 21.9558 61.1016 20.9787 61.1016 19.6824V13.4407H63.2752V19.483C63.2752 20.3405 63.4347 20.9587 63.7738 21.3177C64.1128 21.6766 64.5714 21.8561 65.1697 21.8561C65.6283 21.8561 66.0072 21.7763 66.3064 21.6367C66.6055 21.4972 66.8647 21.3177 67.0442 21.0784C67.2436 20.8391 67.3633 20.5599 67.463 20.2209C67.5428 19.8819 67.5826 19.5429 67.5826 19.144V13.4407H69.7563V23.2919Z" fill="black"/>
<path d="M72.0488 13.4404H74.0829V15.3548H74.1228C74.1826 15.0956 74.3023 14.8363 74.5017 14.5771C74.6811 14.3178 74.9005 14.0985 75.1597 13.8791C75.419 13.6598 75.7181 13.5002 76.0372 13.3806C76.3563 13.2609 76.6753 13.1812 77.0143 13.1812C77.2736 13.1812 77.453 13.1812 77.5328 13.2011C77.6325 13.221 77.7322 13.221 77.8319 13.241V15.3349C77.6724 15.3149 77.5328 15.295 77.3733 15.275C77.2138 15.2551 77.0542 15.2551 76.9146 15.2551C76.5357 15.2551 76.1967 15.3349 75.8777 15.4745C75.5586 15.614 75.2794 15.8334 75.0202 16.1325C74.7809 16.4117 74.5814 16.7707 74.4418 17.1894C74.3022 17.6082 74.2225 18.0868 74.2225 18.6452V23.3315H72.0488V13.4404Z" fill="black"/>
<path d="M80.1057 18.9246C80.1057 19.3034 80.1655 19.6823 80.2652 20.0213C80.3649 20.3803 80.5444 20.6794 80.7438 20.9586C80.9632 21.2179 81.2424 21.4372 81.5615 21.5967C81.9005 21.7563 82.2794 21.836 82.738 21.836C83.3762 21.836 83.8946 21.6965 84.2735 21.4173C84.6524 21.1381 84.9516 20.7393 85.151 20.1809H87.205C87.0853 20.7193 86.8859 21.1979 86.6067 21.6167C86.3275 22.0355 85.9885 22.3944 85.5897 22.6736C85.1909 22.9528 84.7521 23.1721 84.2735 23.3317C83.775 23.4713 83.2764 23.551 82.738 23.551C81.9603 23.551 81.2823 23.4314 80.684 23.1721C80.0858 22.9129 79.5872 22.554 79.1684 22.0953C78.7497 21.6366 78.4505 21.0982 78.2312 20.4601C78.0118 19.8219 77.9121 19.124 77.9121 18.3662C77.9121 17.6682 78.0318 17.0101 78.2511 16.372C78.4705 15.7339 78.7895 15.1954 79.2083 14.7168C79.6271 14.2382 80.1256 13.8593 80.704 13.5802C81.2823 13.301 81.9403 13.1614 82.6782 13.1614C83.4559 13.1614 84.1539 13.3209 84.7721 13.64C85.3903 13.959 85.9088 14.3978 86.3076 14.9362C86.7064 15.4746 87.0056 16.0928 87.185 16.7708C87.3645 17.4688 87.4243 18.1867 87.3246 18.9246H80.1057ZM85.1909 17.4887C85.1709 17.1497 85.0911 16.8107 84.9715 16.4917C84.8518 16.1726 84.6923 15.8934 84.473 15.6541C84.2536 15.4148 84.0143 15.2353 83.7152 15.0758C83.416 14.9362 83.077 14.8564 82.7181 14.8564C82.3392 14.8564 81.9802 14.9163 81.6811 15.0558C81.362 15.1954 81.1028 15.3749 80.8834 15.6142C80.6641 15.8535 80.4846 16.1327 80.345 16.4518C80.2054 16.7708 80.1456 17.1098 80.1256 17.4887H85.1909Z" fill="black"/>
<path d="M90.216 9.67139V18.2065L95.6801 13.4404H97.2754L93.0877 17.0897L97.5746 23.2916H96.059L92.1703 17.9273L90.216 19.5426V23.2717H89.0195V9.67139H90.216Z" fill="black"/>
<path d="M99.4297 20.0411C99.5493 20.4998 99.7488 20.9186 100.008 21.2975C100.267 21.6564 100.606 21.9755 101.025 22.2148C101.424 22.4541 101.922 22.5737 102.501 22.5737C103.378 22.5737 104.056 22.3544 104.555 21.8957C105.053 21.437 105.392 20.8189 105.592 20.0611H106.788C106.529 21.1778 106.07 22.0353 105.392 22.6535C104.714 23.2717 103.757 23.5708 102.501 23.5708C101.723 23.5708 101.045 23.4312 100.487 23.152C99.9282 22.8729 99.4496 22.494 99.1106 22.0353C98.7517 21.5567 98.4924 20.9983 98.313 20.3801C98.1335 19.742 98.0537 19.0839 98.0537 18.386C98.0537 17.7279 98.1335 17.1097 98.313 16.4715C98.4924 15.8534 98.7517 15.295 99.1106 14.7964C99.4696 14.2979 99.9282 13.919 100.487 13.6199C101.045 13.3207 101.723 13.1812 102.501 13.1812C103.298 13.1812 103.956 13.3407 104.515 13.6598C105.073 13.9788 105.532 14.3976 105.871 14.9161C106.23 15.4346 106.469 16.0129 106.629 16.6909C106.788 17.349 106.848 18.027 106.828 18.725H99.2502C99.2502 19.1238 99.31 19.5825 99.4297 20.0411ZM105.392 16.3718C105.253 15.9531 105.033 15.5742 104.774 15.2551C104.515 14.936 104.176 14.6768 103.797 14.4774C103.418 14.278 102.979 14.1782 102.501 14.1782C102.002 14.1782 101.563 14.278 101.185 14.4774C100.806 14.6768 100.487 14.936 100.207 15.2551C99.9482 15.5742 99.7288 15.9531 99.5693 16.3718C99.4097 16.7906 99.31 17.2293 99.2502 17.688H105.612C105.612 17.2293 105.532 16.7906 105.392 16.3718Z" fill="black"/>
<path d="M109.341 20.0411C109.46 20.4998 109.66 20.9186 109.919 21.2975C110.178 21.6564 110.517 21.9755 110.936 22.2148C111.335 22.4541 111.834 22.5737 112.412 22.5737C113.289 22.5737 113.967 22.3544 114.466 21.8957C114.964 21.437 115.303 20.8189 115.503 20.0611H116.699C116.44 21.1778 115.981 22.0353 115.303 22.6535C114.625 23.2717 113.668 23.5708 112.412 23.5708C111.634 23.5708 110.956 23.4312 110.398 23.152C109.839 22.8729 109.381 22.494 109.022 22.0353C108.663 21.5567 108.404 20.9983 108.224 20.3801C108.045 19.742 107.965 19.0839 107.965 18.386C107.965 17.7279 108.045 17.1097 108.224 16.4715C108.404 15.8534 108.663 15.295 109.022 14.7964C109.381 14.2979 109.839 13.919 110.398 13.6199C110.956 13.3207 111.634 13.1812 112.412 13.1812C113.21 13.1812 113.868 13.3407 114.426 13.6598C114.984 13.9788 115.443 14.3976 115.782 14.9161C116.141 15.4346 116.38 16.0129 116.54 16.6909C116.699 17.349 116.759 18.027 116.739 18.725H109.161C109.161 19.1238 109.221 19.5825 109.341 20.0411ZM115.283 16.3718C115.144 15.9531 114.925 15.5742 114.665 15.2551C114.406 14.936 114.067 14.6768 113.688 14.4774C113.309 14.278 112.871 14.1782 112.392 14.1782C111.893 14.1782 111.455 14.278 111.076 14.4774C110.697 14.6768 110.378 14.936 110.099 15.2551C109.839 15.5742 109.62 15.9531 109.46 16.3718C109.301 16.7906 109.201 17.2293 109.141 17.688H115.503C115.503 17.2293 115.443 16.7906 115.283 16.3718Z" fill="black"/>
<path d="M119.451 13.4603V15.3349H119.491C119.77 14.6568 120.228 14.1184 120.847 13.7395C121.485 13.3606 122.183 13.1812 123 13.1812C123.758 13.1812 124.396 13.3207 124.955 13.5999C125.513 13.8791 125.972 14.258 126.331 14.7366C126.69 15.2152 126.969 15.7736 127.148 16.3918C127.328 17.0299 127.407 17.688 127.407 18.386C127.407 19.0839 127.328 19.742 127.148 20.3801C126.969 21.0183 126.69 21.5567 126.331 22.0353C125.952 22.5139 125.493 22.8928 124.955 23.152C124.396 23.4312 123.758 23.5708 123 23.5708C122.641 23.5708 122.282 23.5309 121.924 23.4312C121.565 23.3515 121.245 23.2119 120.926 23.0324C120.627 22.8529 120.348 22.6336 120.109 22.3743C119.869 22.1151 119.69 21.796 119.57 21.437H119.53V26.921H118.334V13.4603H119.451ZM126.051 16.8504C125.932 16.3519 125.732 15.8932 125.473 15.5143C125.214 15.1155 124.875 14.7964 124.476 14.5571C124.077 14.3178 123.579 14.1782 123 14.1782C122.342 14.1782 121.784 14.2979 121.345 14.5173C120.906 14.7366 120.548 15.0557 120.268 15.4346C120.009 15.8135 119.81 16.2522 119.71 16.7707C119.61 17.2892 119.55 17.8076 119.55 18.366C119.55 18.8845 119.61 19.383 119.73 19.8816C119.85 20.3801 120.049 20.8388 120.328 21.2177C120.607 21.6165 120.966 21.9356 121.405 22.1749C121.844 22.4142 122.382 22.5538 123.02 22.5538C123.599 22.5538 124.077 22.4341 124.496 22.1749C124.895 21.9356 125.234 21.5966 125.493 21.2177C125.752 20.8189 125.952 20.3801 126.071 19.8816C126.191 19.383 126.251 18.8646 126.251 18.366C126.231 17.8675 126.171 17.3689 126.051 16.8504Z" fill="black"/>
<path fill-rule="evenodd" clip-rule="evenodd" d="M0 20.0813C0 9.05347 8.99374 0.0996094 20.0614 0.0996094C25.6052 0.0996094 30.6306 2.31315 34.26 5.94255C37.8894 9.57195 40.1428 14.5574 40.1428 20.0813C40.1428 25.6051 37.8894 30.5906 34.26 34.22C30.6306 37.8494 25.5853 40.0829 20.0614 40.0829C14.5376 40.0829 9.51223 37.8494 5.88282 34.22C2.25342 30.5906 0 25.6051 0 20.0813ZM20.3007 20.1411L24.7478 25.2064C25.4457 25.9841 24.8874 27.2005 23.8304 27.1606H23.3917H20.1412H16.8907H16.2924C15.6344 27.1606 15.0959 26.6222 15.0959 25.9641V20.0614V14.1586C15.0959 13.5005 15.6344 12.9621 16.2924 12.9621H16.6913H16.8907H19.9617H23.0527C24.1296 12.9621 24.668 14.2783 23.8903 15.036L20.3606 18.486C19.9019 18.9247 19.882 19.6625 20.3007 20.1411Z" fill="black"/>
</svg>
