<svg width="16" height="16" viewBox="0 0 16 16" fill="none" xmlns="http://www.w3.org/2000/svg">
<g clip-path="url(#clip0_1855_237)">
<path d="M8 0C3.58167 0 0 3.58167 0 8C0 12.4183 3.58167 16 8 16C12.4183 16 16 12.4183 16 8C16 3.58167 12.4183 0 8 0ZM8.5475 9.89583C8.03417 9.85667 7.81917 9.6025 7.4175 9.35917C7.19667 10.5183 6.92667 11.63 6.12667 12.2108C5.87917 10.4575 6.48833 9.1425 6.77167 7.745C6.28917 6.9325 6.82917 5.29833 7.8475 5.7C9.1 6.19667 6.7625 8.72083 8.33167 9.03667C9.97 9.365 10.6392 6.19333 9.62333 5.16333C8.155 3.67417 5.35083 5.12917 5.69583 7.26083C5.77917 7.78167 6.31833 7.94 5.91083 8.65917C4.97167 8.45083 4.69083 7.71 4.7275 6.7225C4.785 5.10583 6.18 3.97333 7.57833 3.8175C9.3475 3.62083 11.0075 4.46667 11.2375 6.13167C11.495 8.01 10.4383 10.0425 8.5475 9.89583Z" fill="white"/>
</g>
<defs>
<clipPath id="clip0_1855_237">
<rect width="16" height="16" fill="white"/>
</clipPath>
</defs>
</svg>
