<svg width="163" height="47" viewBox="0 0 163 47" fill="none" xmlns="http://www.w3.org/2000/svg">
<g clip-path="url(#clip0_1881_243)">
<path d="M156.963 47.2954H6.03704C2.71667 47.2954 0 44.635 0 41.3835V5.91176C0 2.66019 2.71667 -0.00018692 6.03704 -0.00018692H156.963C160.283 -0.00018692 163 2.66019 163 5.91176V41.3835C163 44.635 160.283 47.2954 156.963 47.2954Z" fill="#001219"/>
<path d="M156.963 0.000488281H6.03704C2.71667 0.000488281 0 2.64424 0 5.87549V41.1255C0 44.3567 2.71667 47.0005 6.03704 47.0005H156.963C160.283 47.0005 163 44.3567 163 41.1255V5.87549C163 2.64424 160.283 0.000488281 156.963 0.000488281ZM156.963 0.940487C159.759 0.940487 162.034 3.15466 162.034 5.87549V41.1255C162.034 43.8468 159.759 46.061 156.963 46.061H6.03704C3.24116 46.061 0.965926 43.8468 0.965926 41.1255V5.87549C0.965926 3.15466 3.24116 0.940487 6.03704 0.940487H156.963Z" fill="#637381"/>
<path d="M57.2543 12.1115C57.2543 13.1021 56.9547 13.891 56.3548 14.4795C55.6733 15.1792 54.7852 15.5293 53.6933 15.5293C52.6477 15.5293 51.7587 15.1746 51.0276 14.4642C50.2952 13.7543 49.9297 12.874 49.9297 11.8237C49.9297 10.7729 50.2952 9.89308 51.0276 9.1827C51.7587 8.47279 52.6477 8.1176 53.6933 8.1176C54.2121 8.1176 54.7088 8.21692 55.1805 8.41509C55.6521 8.61373 56.0304 8.87741 56.3134 9.20765L55.6766 9.8316C55.197 9.27044 54.5367 8.99009 53.6933 8.99009C52.9307 8.99009 52.2713 9.25246 51.7148 9.77756C51.1582 10.3033 50.88 10.9849 50.88 11.8237C50.88 12.6625 51.1582 13.3441 51.7148 13.8698C52.2713 14.3949 52.9307 14.6573 53.6933 14.6573C54.5023 14.6573 55.1767 14.3935 55.7167 13.8652C56.0672 13.521 56.2699 13.0426 56.3241 12.4282H53.6933V11.5761H57.2038C57.2378 11.7614 57.2543 11.9392 57.2543 12.1115Z" fill="white"/>
<path d="M57.253 12.1109H57.1322C57.1313 13.0789 56.8426 13.8308 56.2681 14.3953L56.2668 14.3962L56.2663 14.3972C55.6064 15.0728 54.7583 15.4091 53.692 15.4105C52.6742 15.4091 51.8224 15.0691 51.1111 14.38C50.4014 13.6895 50.0504 12.8466 50.0491 11.8231C50.0504 10.7992 50.4014 9.95672 51.1111 9.26668C51.8224 8.57711 52.6742 8.2367 53.692 8.23528C54.1952 8.23528 54.6744 8.33141 55.1314 8.52307C55.5889 8.71616 55.9503 8.96919 56.2196 9.28335L56.312 9.20709L56.2267 9.12349L55.5899 9.74791L55.6753 9.83103L55.7682 9.75536C55.2663 9.16641 54.5618 8.86951 53.692 8.87129C52.9011 8.87034 52.2054 9.14702 51.63 9.6921C51.0489 10.239 50.757 10.9589 50.758 11.8231C50.757 12.6873 51.0489 13.4073 51.63 13.9541C52.2054 14.4992 52.9011 14.7759 53.692 14.775C54.5277 14.7764 55.24 14.4988 55.8007 13.9482C56.1752 13.5805 56.3875 13.0711 56.4432 12.4378L56.4544 12.3094H53.8127V11.6938H57.2025V11.5755L57.0836 11.5963C57.1167 11.7756 57.1322 11.946 57.1322 12.1109H57.253H57.3737C57.3737 11.9312 57.3567 11.7465 57.3213 11.5544L57.3034 11.4573H53.5712V12.4277V12.5459H56.3228V12.4277L56.2025 12.4175C56.1493 13.0125 55.9559 13.4605 55.63 13.781C55.1112 14.2872 54.4745 14.5371 53.692 14.5385C52.9576 14.5375 52.3346 14.2899 51.7974 13.7842C51.2654 13.2803 51.0008 12.637 50.9994 11.8231C51.0008 11.0093 51.2654 10.3659 51.7974 9.86201C52.3346 9.3563 52.9576 9.10871 53.692 9.10776C54.5084 9.10966 55.1249 9.3738 55.5829 9.9073L55.6678 10.0061L56.3974 9.29068L56.4756 9.21406L56.4044 9.13129C56.1077 8.78497 55.7126 8.51007 55.2267 8.30599C54.74 8.10131 54.2264 7.9988 53.692 7.9988C52.6186 7.99786 51.6923 8.36735 50.9409 9.09854C50.1867 9.82831 49.8067 10.7456 49.8076 11.8231C49.8067 12.9002 50.1867 13.8179 50.9414 14.5482C51.6923 15.2789 52.6186 15.6479 53.692 15.647C54.8098 15.6479 55.7371 15.2843 56.4407 14.5606L56.3535 14.4789L56.4388 14.5625C57.0643 13.9505 57.3746 13.1238 57.3737 12.1109H57.253Z" fill="white"/>
<path d="M62.8181 9.14829H59.5189V11.3977H62.4941V12.2502H59.5189V14.4996H62.8181V15.3711H58.5889V8.27675H62.8181V9.14829Z" fill="white"/>
<path d="M62.8187 9.14871V9.03047H59.3988V11.5163H62.374V12.132L59.3988 12.1324V14.6182H62.6979V15.2533H58.7102V8.39541H62.6979V9.14871H62.8187V9.03047V9.14871H62.9394V8.27717V8.15893H58.4688V15.4897H62.9394V14.5V14.3817H59.6403V12.3688H62.6155V11.3981V11.2798H59.6403V9.26695H62.9394V9.14871H62.8187Z" fill="white"/>
<path d="M66.744 15.3711H65.8124V9.14829H63.7891V8.27675H68.7673V9.14829H66.744V15.3711Z" fill="white"/>
<path d="M66.7436 15.3715V15.2533H65.9328V9.03047H63.9095V8.39541H68.6462V9.03047H66.6229V15.3715H66.7436V15.2533V15.3715H66.8643V9.26695H68.8877V8.27717V8.15893H63.668V9.14871V9.26695H65.6913V15.4897H66.7436H66.8643V15.3715H66.7436Z" fill="white"/>
<path d="M72.3701 15.3711V8.27675H73.3007V15.3711H72.3701Z" fill="white"/>
<path d="M72.3688 15.3715H72.4895V8.39541H73.1786V15.2533H72.3688V15.3715H72.4895H72.3688V15.4897H73.2993H73.4201V8.15893H72.3688H72.248V15.4897H72.3688V15.3715Z" fill="white"/>
<path d="M77.4294 15.3711H76.4979V9.14829H74.4746V8.27675H79.4528V9.14829H77.4294V15.3711Z" fill="white"/>
<path d="M77.428 15.3715V15.2533H76.6173V9.03047H74.594V8.39541H79.3307V9.03047H77.3073V15.3715H77.428V15.2533V15.3715H77.5488V9.26695H79.5722V8.27717V8.15893H74.3525V9.14871V9.26695H76.3758V15.4897H77.428H77.5488V15.3715H77.428Z" fill="white"/>
<path d="M84.2525 13.8601C84.7887 14.3917 85.4448 14.6573 86.2207 14.6573C86.9966 14.6573 87.6531 14.3917 88.1884 13.8601C88.7251 13.3285 88.994 12.649 88.994 11.8237C88.994 10.9984 88.7251 10.3189 88.1884 9.78726C87.6531 9.25566 86.9966 8.99009 86.2207 8.99009C85.4448 8.99009 84.7887 9.25566 84.2525 9.78726C83.7172 10.3189 83.4484 10.9984 83.4484 11.8237C83.4484 12.649 83.7172 13.3285 84.2525 13.8601ZM88.877 14.454C88.1648 15.1713 87.279 15.5293 86.2207 15.5293C85.1613 15.5293 84.2761 15.1713 83.5654 14.454C82.8527 13.7376 82.498 12.8606 82.498 11.8237C82.498 10.7867 82.8527 9.90963 83.5654 9.19334C84.2761 8.47599 85.1613 8.1176 86.2207 8.1176C87.2735 8.1176 88.1568 8.47788 88.8723 9.19795C89.5869 9.91803 89.9444 10.7932 89.9444 11.8237C89.9444 12.8606 89.5877 13.7376 88.877 14.454Z" fill="white"/>
<path d="M84.2522 13.8596L84.1663 13.9427C84.7225 14.4956 85.4162 14.7764 86.2204 14.775C87.024 14.7764 87.7188 14.4956 88.2739 13.9427C88.8337 13.3893 89.1152 12.6734 89.1144 11.8231C89.1152 10.9729 88.8337 10.2569 88.2739 9.70357C87.7188 9.15068 87.024 8.86987 86.2204 8.87129C85.4162 8.86987 84.7225 9.15068 84.1663 9.70357C83.6079 10.2569 83.3259 10.9729 83.3273 11.8231C83.3259 12.6734 83.6079 13.3893 84.1663 13.9427L84.2522 13.8596L84.338 13.7764C83.8258 13.266 83.5697 12.624 83.5688 11.8231C83.5697 11.0223 83.8258 10.3803 84.338 9.86981C84.8549 9.3595 85.4723 9.10918 86.2204 9.10776C86.9679 9.10918 87.5867 9.3595 88.1022 9.86981C88.6154 10.3803 88.8715 11.0223 88.8724 11.8231C88.8715 12.624 88.6154 13.266 88.1022 13.7764C87.5867 14.2867 86.9679 14.5371 86.2204 14.5385C85.4723 14.5371 84.8549 14.2867 84.338 13.7764L84.2522 13.8596ZM88.8767 14.4535L88.7903 14.3713C88.098 15.0659 87.2514 15.4091 86.2204 15.4105C85.1889 15.4091 84.3422 15.0659 83.6512 14.3713L83.648 14.3676L83.6512 14.3713C82.9604 13.6743 82.6194 12.8337 82.6184 11.8231C82.6194 10.8125 82.9604 9.97197 83.6512 9.27495C84.3422 8.5803 85.1889 8.2367 86.2204 8.23528C87.2447 8.2367 88.0894 8.58172 88.7856 9.28004C89.4789 9.98025 89.8218 10.8195 89.8233 11.8231C89.8218 12.8337 89.4799 13.6743 88.7903 14.3713L88.8767 14.4535L88.9635 14.5356C89.6954 13.7995 90.0656 12.8863 90.0648 11.8231C90.0656 10.7659 89.694 9.85468 88.9587 9.11521C88.223 8.37291 87.3014 7.9975 86.2204 7.9988C85.1337 7.9975 84.2093 8.37113 83.4782 9.1106V9.11013C82.7448 9.84676 82.376 10.7599 82.377 11.8231C82.376 12.8863 82.7448 13.7995 83.4782 14.5361L83.4815 14.5394L83.4782 14.5356C84.2093 15.2751 85.1337 15.6479 86.2204 15.647C87.3066 15.6479 88.2309 15.2751 88.9635 14.5356L88.8767 14.4535Z" fill="white"/>
<path d="M91.251 15.3711V8.27675H92.3839L95.9047 13.7957H95.9448L95.9047 12.4285V8.27675H96.8362V15.3711H95.8646L92.181 9.58471H92.141L92.181 10.9524V15.3711H91.251Z" fill="white"/>
<path d="M91.2516 15.3715H91.3723V8.39541H92.3175L95.8383 13.9143H95.9454H96.0694L96.026 12.4271V8.39541H96.7161V15.2533H95.9322L92.2487 9.46689H92.1416H92.0176L92.0609 10.9547V15.2533H91.2516V15.3715H91.3723H91.2516V15.4897H92.1817H92.3024V10.9509L92.2623 9.58194L92.1416 9.58513V9.70337H92.1817V9.58513L92.0793 9.64803L95.7982 15.4897H96.8368H96.9576V8.15893H95.9053H95.7846V12.4303L95.8247 13.7993L95.9454 13.7961V13.6779H95.9053V13.7961L96.0077 13.7333L92.4514 8.15893H91.2516H91.1309V15.4897H91.2516V15.3715Z" fill="white"/>
<path d="M129.116 35.4714H131.369V20.6901H129.116V35.4714ZM149.409 26.0146L146.826 32.423H146.749L144.068 26.0146H141.641L145.661 34.9716L143.369 39.9538H145.72L151.914 26.0146H149.409ZM136.632 33.7925C135.893 33.7925 134.864 33.4313 134.864 32.5371C134.864 31.3963 136.147 30.9589 137.253 30.9589C138.244 30.9589 138.709 31.1681 139.311 31.4536C139.136 32.8226 137.932 33.7925 136.632 33.7925ZM136.904 25.6912C135.272 25.6912 133.583 26.3951 132.884 27.9544L134.884 28.7719C135.311 27.9544 136.107 27.6879 136.942 27.6879C138.107 27.6879 139.292 28.3729 139.311 29.5899V29.7419C138.903 29.5136 138.03 29.1715 136.962 29.1715C134.806 29.1715 132.611 30.3312 132.611 32.4992C132.611 34.477 134.379 35.7512 136.359 35.7512C137.874 35.7512 138.709 35.0857 139.234 34.3061H139.311V35.4469H141.486V29.7797C141.486 27.1558 139.486 25.6912 136.904 25.6912ZM122.98 27.814H119.775V22.7473H122.98C124.664 22.7473 125.62 24.113 125.62 25.2806C125.62 26.4261 124.664 27.814 122.98 27.814ZM122.922 20.6901H117.524V35.4714H119.775V29.8712H122.922C125.419 29.8712 127.873 28.1008 127.873 25.2806C127.873 22.4605 125.419 20.6901 122.922 20.6901ZM93.484 33.7952C91.9276 33.7952 90.6244 32.519 90.6244 30.7663C90.6244 28.9951 91.9276 27.6995 93.484 27.6995C95.0207 27.6995 96.2267 28.9951 96.2267 30.7663C96.2267 32.519 95.0207 33.7952 93.484 33.7952ZM96.071 26.8423H95.9931C95.4876 26.2519 94.5146 25.7185 93.2893 25.7185C90.7216 25.7185 88.3681 27.9281 88.3681 30.7663C88.3681 33.5856 90.7216 35.7762 93.2893 35.7762C94.5146 35.7762 95.4876 35.2427 95.9931 34.6335H96.071V35.3573C96.071 37.2815 95.0207 38.31 93.3284 38.31C91.9474 38.31 91.0914 37.3382 90.7409 36.5193L88.7766 37.3193C89.3407 38.6527 90.8386 40.291 93.3284 40.291C95.9738 40.291 98.2108 38.7668 98.2108 35.0524V26.0234H96.071V26.8423ZM99.7668 35.4714H102.023V20.6896H99.7668V35.4714ZM105.35 30.5949C105.291 28.6518 106.886 27.6616 108.034 27.6616C108.929 27.6616 109.687 28.0994 109.94 28.7285L105.35 30.5949ZM112.352 28.9188C111.925 27.7946 110.621 25.7185 107.956 25.7185C105.31 25.7185 103.113 27.7567 103.113 30.7474C103.113 33.5666 105.291 35.7762 108.209 35.7762C110.563 35.7762 111.925 34.3665 112.489 33.5476L110.738 32.4045C110.155 33.2428 109.357 33.7952 108.209 33.7952C107.061 33.7952 106.244 33.2807 105.719 32.2715L112.585 29.4901L112.352 28.9188ZM57.6467 27.2616V29.3949H62.8597C62.7041 30.5949 62.2956 31.4711 61.6731 32.0807C60.9147 32.8239 59.7281 33.6428 57.6467 33.6428C54.4371 33.6428 51.928 31.1094 51.928 27.9664C51.928 24.8233 54.4371 22.2896 57.6467 22.2896C59.378 22.2896 60.6421 22.9565 61.5759 23.8137L63.1125 22.309C61.8094 21.0896 60.078 20.1562 57.6467 20.1562C53.2504 20.1562 49.5547 23.6613 49.5547 27.9664C49.5547 32.2715 53.2504 35.7762 57.6467 35.7762C60.02 35.7762 61.8094 35.0146 63.2097 33.5856C64.6492 32.1759 65.0968 30.1949 65.0968 28.5951C65.0968 28.0994 65.058 27.6426 64.9798 27.2616H57.6467ZM71.0235 33.7952C69.467 33.7952 68.1247 32.538 68.1247 30.7474C68.1247 28.9377 69.467 27.6995 71.0235 27.6995C72.5793 27.6995 73.9216 28.9377 73.9216 30.7474C73.9216 32.538 72.5793 33.7952 71.0235 33.7952ZM71.0235 25.7185C68.1832 25.7185 65.8683 27.8329 65.8683 30.7474C65.8683 33.6428 68.1832 35.7762 71.0235 35.7762C73.8632 35.7762 76.178 33.6428 76.178 30.7474C76.178 27.8329 73.8632 25.7185 71.0235 25.7185ZM82.2683 33.7952C80.7124 33.7952 79.37 32.538 79.37 30.7474C79.37 28.9377 80.7124 27.6995 82.2683 27.6995C83.8243 27.6995 85.1666 28.9377 85.1666 30.7474C85.1666 32.538 83.8243 33.7952 82.2683 33.7952ZM82.2683 25.7185C79.4281 25.7185 77.1138 27.8329 77.1138 30.7474C77.1138 33.6428 79.4281 35.7762 82.2683 35.7762C85.1081 35.7762 87.423 33.6428 87.423 30.7474C87.423 27.8329 85.1081 25.7185 82.2683 25.7185Z" fill="white"/>
<path d="M12.6895 38.2969L12.5998 38.2128C12.2484 37.8487 12.041 37.2834 12.041 36.5514V36.7237V10.574C12.041 10.5716 12.041 10.5698 12.041 10.5679C12.041 10.5702 12.041 10.5721 12.041 10.5744V10.7472C12.041 9.95452 12.2829 9.35741 12.6881 8.99938L27.6476 23.6486L12.6895 38.2969ZM12.041 10.5665C12.041 10.5014 12.0428 10.4381 12.0462 10.3758C12.0428 10.4376 12.041 10.5014 12.041 10.5665ZM12.0462 10.373C12.0462 10.3721 12.0462 10.3712 12.0466 10.3702C12.0462 10.3712 12.0462 10.3721 12.0462 10.373ZM12.0466 10.3647C12.0466 10.3642 12.0466 10.3637 12.0466 10.3633C12.0466 10.3637 12.0466 10.3642 12.0466 10.3647Z" fill="url(#paint0_linear_1881_243)"/>
<path d="M32.6332 28.7065L32.7469 28.6433L38.6547 25.3561C39.2179 25.0426 39.5933 24.6624 39.7806 24.2602C39.5938 24.6624 39.2183 25.043 38.6547 25.3566L32.7469 28.6438L32.6332 28.7065ZM32.6347 28.5333L27.6475 23.6486L32.6342 18.7648L38.6547 22.1142C39.4192 22.5397 39.8484 23.0879 39.9202 23.6482C39.9202 23.6486 39.9202 23.6496 39.9202 23.6504C39.8484 24.2093 39.4192 24.7581 38.6547 25.1834L32.6347 28.5333Z" fill="url(#paint1_linear_1881_243)"/>
<path d="M13.7559 38.8545C13.338 38.8545 12.9734 38.7215 12.689 38.4702L12.6895 38.4697C12.9739 38.721 13.339 38.8545 13.7569 38.8545C13.7931 38.8545 13.8299 38.8535 13.8672 38.8518C13.8294 38.8535 13.7921 38.8545 13.7559 38.8545ZM13.7564 38.6813C13.3385 38.6817 12.9739 38.5483 12.6895 38.297V38.2966L27.6476 23.6484L32.6348 28.5331L15.109 38.2846C14.6242 38.5538 14.1647 38.6813 13.7564 38.6813ZM12.6853 38.467C12.6589 38.4435 12.6329 38.4185 12.6074 38.3926L12.6853 38.467Z" fill="url(#paint2_linear_1881_243)"/>
<path d="M27.648 23.6479L12.6885 8.99873C12.9728 8.74795 13.337 8.61493 13.7544 8.61493C14.1638 8.61493 14.6236 8.74286 15.1094 9.01257L32.6347 18.7641L27.648 23.6479ZM32.7475 18.6538L15.1094 8.83993C14.6236 8.57011 14.1638 8.44218 13.7544 8.44218C13.7524 8.44218 13.7511 8.44218 13.7492 8.44218C13.7516 8.44218 13.7534 8.44218 13.7563 8.44218C14.1648 8.44218 14.6241 8.56964 15.1094 8.83946L32.7475 18.6538Z" fill="url(#paint3_linear_1881_243)"/>
<path d="M13.867 38.8521C14.2466 38.8308 14.6669 38.7028 15.1088 38.4576L32.6332 28.7066L15.1088 38.4576C14.6673 38.7033 14.2466 38.8308 13.867 38.8521ZM12.6888 38.4705L12.6851 38.4673C12.6864 38.4682 12.6879 38.4695 12.6888 38.4705ZM12.6072 38.3929L12.5996 38.3856V38.3851C12.6025 38.3878 12.6048 38.3906 12.6072 38.3929Z" fill="#001219"/>
<path d="M32.6338 28.7065L32.7482 28.6433L32.6338 28.7065Z" fill="url(#paint4_linear_1881_243)"/>
<path d="M13.7567 38.8545C13.3388 38.8545 12.9737 38.721 12.6893 38.4697L12.6888 38.4702C12.6879 38.4693 12.6864 38.468 12.6851 38.467L12.6072 38.3927C12.6048 38.3903 12.6025 38.3876 12.5996 38.3848L12.6893 38.297C12.9737 38.5483 13.3383 38.6817 13.7562 38.6813C14.1645 38.6813 14.6239 38.5538 15.1088 38.2846L32.6346 28.5331L32.7469 28.643L32.6332 28.7063L15.1088 38.4573C14.6669 38.7026 14.2466 38.8305 13.867 38.8518C13.8297 38.8535 13.7929 38.8545 13.7567 38.8545Z" fill="url(#paint5_linear_1881_243)"/>
<path d="M12.5998 38.3857C12.2484 38.0217 12.041 37.4564 12.041 36.7244V36.7239C12.041 37.4564 12.2484 38.0212 12.5998 38.3853V38.3857Z" fill="#001219"/>
<path d="M12.5998 38.3853C12.2484 38.0212 12.041 37.4564 12.041 36.7239V36.5516C12.041 37.2836 12.2484 37.8489 12.5998 38.213L12.6895 38.297L12.5998 38.3853Z" fill="url(#paint6_linear_1881_243)"/>
<path d="M12.5996 38.3853L12.6899 38.297V38.2974L12.5996 38.3853Z" fill="url(#paint7_linear_1881_243)"/>
<path d="M39.7812 24.2603C39.8747 24.0607 39.9217 23.8556 39.9217 23.6505C39.9217 23.6501 39.9217 23.6497 39.9217 23.6497C39.9217 23.8552 39.8747 24.0602 39.7812 24.2603Z" fill="#001219"/>
<path d="M32.748 28.6436L32.6357 28.5336L38.6558 25.1836C39.4203 24.7583 39.8495 24.2096 39.9212 23.6507C39.9212 23.8558 39.8745 24.0608 39.7817 24.2604C39.5944 24.6627 39.219 25.0428 38.6558 25.3564L32.748 28.6436Z" fill="url(#paint8_linear_1881_243)"/>
<path d="M39.9208 23.6479V23.6475C39.9203 23.029 39.4982 22.4106 38.6553 21.9413L32.7476 18.6541H32.7471L32.7476 18.6538L38.6553 21.9408C39.4991 22.4101 39.9217 23.0294 39.9208 23.6479Z" fill="#637381"/>
<path d="M39.9198 23.6479C39.848 23.0877 39.4188 22.5395 38.6543 22.114L32.6338 18.7646L32.7461 18.6546H32.7466L38.6543 21.9418C39.4972 22.4111 39.9193 23.0294 39.9198 23.6479Z" fill="url(#paint9_linear_1881_243)"/>
<path d="M12.041 10.5679C12.041 10.5674 12.041 10.5669 12.041 10.5665C12.041 10.5669 12.041 10.5674 12.041 10.5679ZM12.0462 10.3757C12.0462 10.3748 12.0462 10.3738 12.0462 10.3729C12.0462 10.3738 12.0462 10.3748 12.0462 10.3757ZM12.0466 10.3702C12.0466 10.3683 12.0466 10.3665 12.0466 10.3646C12.0466 10.3665 12.0466 10.3683 12.0466 10.3702ZM12.0466 10.3632C12.1165 9.14853 12.7909 8.4469 13.745 8.44276C13.3314 8.44513 12.9711 8.57815 12.689 8.82704V8.82657L12.6856 8.82988C12.6559 8.85612 12.6277 8.88391 12.5998 8.91253C12.2829 9.24088 12.0829 9.73275 12.0466 10.3632Z" fill="#637381"/>
<path d="M12.041 10.7471V10.5743C12.041 10.572 12.041 10.5701 12.041 10.5678C12.041 10.5673 12.041 10.5669 12.041 10.5664C12.041 10.5013 12.0428 10.4375 12.0462 10.3757C12.0462 10.3747 12.0462 10.3738 12.0462 10.3728C12.0462 10.372 12.0462 10.3711 12.0466 10.3701C12.0466 10.3682 12.0466 10.3665 12.0466 10.3646C12.0466 10.3641 12.0466 10.3636 12.0466 10.3632C12.0829 9.7327 12.2829 9.24082 12.5998 8.91248L12.6881 8.99926C12.2829 9.35729 12.041 9.9544 12.041 10.7471ZM12.6856 8.82983L12.689 8.82652C12.6881 8.82794 12.6866 8.82888 12.6856 8.82983Z" fill="url(#paint10_linear_1881_243)"/>
<path d="M32.6341 18.7646L15.1088 9.01312C14.623 8.74342 14.1632 8.61549 13.7538 8.61549C13.3364 8.61549 12.9722 8.7485 12.6879 8.99929L12.5996 8.9125C12.6275 8.88389 12.6558 8.8561 12.6855 8.82985C12.6864 8.82891 12.6879 8.82796 12.6888 8.82702C12.9709 8.57812 13.3312 8.4451 13.7448 8.44274C13.7458 8.44274 13.7471 8.44274 13.7486 8.44274C13.7505 8.44274 13.7518 8.44274 13.7538 8.44274C14.1632 8.44274 14.623 8.57067 15.1088 8.84049L32.7469 18.6543L32.7464 18.6547L32.6341 18.7646Z" fill="url(#paint11_linear_1881_243)"/>
</g>
<defs>
<linearGradient id="paint0_linear_1881_243" x1="26.3211" y1="10.2981" x2="6.48204" y2="30.557" gradientUnits="userSpaceOnUse">
<stop stop-color="#00A0FF"/>
<stop offset="0.00657445" stop-color="#00A1FF"/>
<stop offset="0.2601" stop-color="#00BEFF"/>
<stop offset="0.5122" stop-color="#00D2FF"/>
<stop offset="0.7604" stop-color="#00DFFF"/>
<stop offset="1" stop-color="#00E3FF"/>
</linearGradient>
<linearGradient id="paint1_linear_1881_243" x1="40.8517" y1="23.6493" x2="11.636" y2="23.6493" gradientUnits="userSpaceOnUse">
<stop stop-color="#FFE000"/>
<stop offset="0.4087" stop-color="#FFBD00"/>
<stop offset="0.7754" stop-color="#FFA500"/>
<stop offset="1" stop-color="#FF9C00"/>
</linearGradient>
<linearGradient id="paint2_linear_1881_243" x1="29.9762" y1="26.3623" x2="3.07293" y2="53.8348" gradientUnits="userSpaceOnUse">
<stop stop-color="#FF3A44"/>
<stop offset="1" stop-color="#C31162"/>
</linearGradient>
<linearGradient id="paint3_linear_1881_243" x1="8.81113" y1="0.207544" x2="20.8245" y2="12.4751" gradientUnits="userSpaceOnUse">
<stop stop-color="#32A071"/>
<stop offset="0.0685" stop-color="#2DA771"/>
<stop offset="0.4762" stop-color="#15CF74"/>
<stop offset="0.8009" stop-color="#06E775"/>
<stop offset="1" stop-color="#00F076"/>
</linearGradient>
<linearGradient id="paint4_linear_1881_243" x1="40.9025" y1="23.6493" x2="11.5081" y2="23.6493" gradientUnits="userSpaceOnUse">
<stop stop-color="#CCB300"/>
<stop offset="0.4087" stop-color="#CC9700"/>
<stop offset="0.7754" stop-color="#CC8400"/>
<stop offset="1" stop-color="#CC7D00"/>
</linearGradient>
<linearGradient id="paint5_linear_1881_243" x1="29.976" y1="26.3623" x2="3.07272" y2="53.8348" gradientUnits="userSpaceOnUse">
<stop stop-color="#CC2E36"/>
<stop offset="1" stop-color="#9C0E4E"/>
</linearGradient>
<linearGradient id="paint6_linear_1881_243" x1="26.3211" y1="10.2983" x2="6.48202" y2="30.5572" gradientUnits="userSpaceOnUse">
<stop stop-color="#008DE0"/>
<stop offset="0.00657445" stop-color="#008DE0"/>
<stop offset="0.2601" stop-color="#00A7E0"/>
<stop offset="0.5122" stop-color="#00B8E0"/>
<stop offset="0.7604" stop-color="#00C4E0"/>
<stop offset="1" stop-color="#00C7E0"/>
</linearGradient>
<linearGradient id="paint7_linear_1881_243" x1="30.0829" y1="26.3627" x2="3.18348" y2="54.0001" gradientUnits="userSpaceOnUse">
<stop stop-color="#E0333C"/>
<stop offset="1" stop-color="#AB0F56"/>
</linearGradient>
<linearGradient id="paint8_linear_1881_243" x1="40.8528" y1="23.6496" x2="11.6371" y2="23.6496" gradientUnits="userSpaceOnUse">
<stop stop-color="#E0C500"/>
<stop offset="0.4087" stop-color="#E0A600"/>
<stop offset="0.7754" stop-color="#E09100"/>
<stop offset="1" stop-color="#E08900"/>
</linearGradient>
<linearGradient id="paint9_linear_1881_243" x1="40.8513" y1="23.6491" x2="11.6356" y2="23.6491" gradientUnits="userSpaceOnUse">
<stop stop-color="#FFE840"/>
<stop offset="0.4087" stop-color="#FFCE40"/>
<stop offset="0.7754" stop-color="#FFBC40"/>
<stop offset="1" stop-color="#FFB540"/>
</linearGradient>
<linearGradient id="paint10_linear_1881_243" x1="26.3211" y1="10.298" x2="6.48203" y2="30.5568" gradientUnits="userSpaceOnUse">
<stop stop-color="#40B8FF"/>
<stop offset="0.00657445" stop-color="#40B9FF"/>
<stop offset="0.2601" stop-color="#40CEFF"/>
<stop offset="0.5122" stop-color="#40DDFF"/>
<stop offset="0.7604" stop-color="#40E7FF"/>
<stop offset="1" stop-color="#40EAFF"/>
</linearGradient>
<linearGradient id="paint11_linear_1881_243" x1="8.81052" y1="0.208101" x2="20.8239" y2="12.4757" gradientUnits="userSpaceOnUse">
<stop stop-color="#65B895"/>
<stop offset="0.0685" stop-color="#62BD95"/>
<stop offset="0.4762" stop-color="#50DB97"/>
<stop offset="0.8009" stop-color="#44ED98"/>
<stop offset="1" stop-color="#40F498"/>
</linearGradient>
<clipPath id="clip0_1881_243">
<rect width="163" height="47" fill="white"/>
</clipPath>
</defs>
</svg>
