<svg width="16" height="16" viewBox="0 0 16 16" fill="none" xmlns="http://www.w3.org/2000/svg">
<g clip-path="url(#clip0_1855_231)">
<path fill-rule="evenodd" clip-rule="evenodd" d="M8 16C12.4183 16 16 12.4183 16 8C16 3.58172 12.4183 0 8 0C3.58172 0 0 3.58172 0 8C0 12.4183 3.58172 16 8 16ZM9.60991 4.16667C9.60977 4.64696 9.78996 5.11094 10.1169 5.47222C10.7674 6.19907 11.6667 6.15741 11.6667 6.15741V7.58796C10.9288 7.58919 10.2092 7.36567 9.60991 6.94907V9.86111C9.60991 11.3194 8.3902 12.5 6.88829 12.5C5.48682 12.5 4.16667 11.4028 4.16667 9.86111C4.16667 8.27778 5.61118 7.03704 7.26137 7.25V8.71296C6.44345 8.46759 5.64945 9.06481 5.64945 9.86111C5.64945 10.5278 6.21386 11.0648 6.89307 11.0648C7.21423 11.0648 7.52285 10.9441 7.75393 10.7282C7.985 10.5123 8.12051 10.2181 8.13191 9.90741V4.16667H9.60991Z" fill="white"/>
</g>
<defs>
<clipPath id="clip0_1855_231">
<rect width="16" height="16" fill="white"/>
</clipPath>
</defs>
</svg>
