<svg width="16" height="16" viewBox="0 0 16 16" fill="none" xmlns="http://www.w3.org/2000/svg">
<g clip-path="url(#clip0_1855_215)">
<path d="M8 0C3.58167 0 0 3.58167 0 8C0 12.4183 3.58167 16 8 16C12.4183 16 16 12.4183 16 8C16 3.58167 12.4183 0 8 0ZM11.2542 6.55333C11.2575 6.62167 11.2583 6.69 11.2583 6.75667C11.2583 8.84 9.67417 11.2408 6.77583 11.2408C5.91941 11.2423 5.08081 10.9963 4.36083 10.5325C4.48333 10.5475 4.60917 10.5533 4.73667 10.5533C5.475 10.5533 6.15417 10.3025 6.69333 9.87917C6.36476 9.87271 6.04639 9.76391 5.78259 9.56793C5.51879 9.37195 5.32271 9.09855 5.22167 8.78583C5.45763 8.8307 5.70071 8.8213 5.9325 8.75833C5.57587 8.68622 5.25516 8.49298 5.02476 8.21139C4.79435 7.92979 4.66842 7.57718 4.66833 7.21333V7.19417C4.88083 7.31167 5.12417 7.38333 5.3825 7.39167C5.04817 7.16911 4.81149 6.82723 4.72087 6.43594C4.63025 6.04466 4.69254 5.63354 4.895 5.28667C5.2908 5.77333 5.78438 6.17146 6.34381 6.45526C6.90323 6.73906 7.51602 6.90222 8.1425 6.93417C8.06285 6.59609 8.09713 6.24117 8.24001 5.92459C8.38288 5.608 8.62635 5.34749 8.93256 5.18355C9.23877 5.01962 9.59056 4.96144 9.93324 5.01806C10.2759 5.07468 10.5903 5.24294 10.8275 5.49667C11.1801 5.4269 11.5183 5.29755 11.8275 5.11417C11.71 5.47928 11.4639 5.78931 11.135 5.98667C11.4474 5.94904 11.7524 5.86506 12.04 5.7375C11.8287 6.05408 11.5626 6.33036 11.2542 6.55333Z" fill="white"/>
</g>
<defs>
<clipPath id="clip0_1855_215">
<rect width="16" height="16" fill="white"/>
</clipPath>
</defs>
</svg>
