<svg width="32" height="32" viewBox="0 0 32 32" fill="none" xmlns="http://www.w3.org/2000/svg">
<mask id="mask0_747_2650" style="mask-type:alpha" maskUnits="userSpaceOnUse" x="1" y="3" width="30" height="25">
<path d="M15.8561 25.9484H4.87695C4.3631 25.9484 3.87029 25.7443 3.50693 25.3809C3.14358 25.0176 2.93945 24.5248 2.93945 24.0109V7.21924C2.93945 6.70538 3.14358 6.21257 3.50693 5.84922C3.87029 5.48587 4.3631 5.28174 4.87695 5.28174H26.8353C27.3491 5.28174 27.842 5.48587 28.2053 5.84922C28.5687 6.21257 28.7728 6.70538 28.7728 7.21924V15.0073" stroke="white" stroke-width="2.58333" stroke-linecap="round" stroke-linejoin="round"/>
<path d="M2.93945 7.21924C2.93945 6.70538 3.14358 6.21257 3.50693 5.84922C3.87029 5.48587 4.3631 5.28174 4.87695 5.28174H26.8353C27.3491 5.28174 27.842 5.48587 28.2053 5.84922C28.5687 6.21257 28.7728 6.70538 28.7728 7.21924V13.0317H2.93945V7.21924Z" fill="white" stroke="white" stroke-width="2.58333"/>
<path d="M5.52311 9.15682C5.52311 8.44345 6.10141 7.86515 6.81478 7.86515C7.52815 7.86515 8.10645 8.44345 8.10645 9.15682C8.10645 9.87019 7.52815 10.4485 6.81478 10.4485C6.10141 10.4485 5.52311 9.87019 5.52311 9.15682Z" fill="black"/>
<path d="M9.39811 9.15682C9.39811 8.44345 9.97641 7.86515 10.6898 7.86515C11.4031 7.86515 11.9814 8.44345 11.9814 9.15682C11.9814 9.87019 11.4031 10.4485 10.6898 10.4485C9.97641 10.4485 9.39811 9.87019 9.39811 9.15682Z" fill="black"/>
<path d="M24.252 24.011C25.322 24.011 26.1895 23.1435 26.1895 22.0735C26.1895 21.0034 25.322 20.136 24.252 20.136C23.1819 20.136 22.3145 21.0034 22.3145 22.0735C22.3145 23.1435 23.1819 24.011 24.252 24.011Z" stroke="white" stroke-width="2.58333"/>
<path d="M24.252 26.5942V24.0108M24.252 20.1358V17.5525M20.3369 24.3337L22.5741 23.0421M25.9298 21.1046L28.167 19.8129M20.3369 19.8129L22.5741 21.1046M25.9298 23.0421L28.167 24.3337" stroke="white" stroke-width="2.58333" stroke-linecap="round" stroke-linejoin="round"/>
</mask>
<g mask="url(#mask0_747_2650)">
<path d="M0.355469 0.115234H31.3555V31.1152H0.355469V0.115234Z" fill="#001219"/>
</g>
</svg>
