<svg width="30" height="29" viewBox="0 0 30 29" fill="none" xmlns="http://www.w3.org/2000/svg">
<g clip-path="url(#clip0_747_2625)">
<path d="M29.9559 13.5981C25.1347 13.5981 20.3128 13.5981 15.4746 13.5981C15.4746 9.96718 15.4746 6.35679 15.4746 2.72227C20.3029 2.11865 25.129 1.51573 29.9559 0.912109C29.9559 5.14103 29.9559 9.36923 29.9559 13.5981Z" fill="#001219"/>
<path d="M29.9557 28.0964C25.1296 27.4928 20.3027 26.8899 15.4688 26.2856C15.4688 22.6581 15.4688 19.0548 15.4688 15.4104C20.2999 15.4104 25.1282 15.4104 29.9557 15.4104C29.9557 19.6393 29.9557 23.8675 29.9557 28.0964Z" fill="#001219"/>
<path d="M13.6339 2.95215C13.6339 6.51289 13.6339 10.0389 13.6339 13.5819C9.41063 13.5819 5.19874 13.5819 0.972656 13.5819C0.972656 10.5652 0.972656 7.55913 0.972656 4.53533C5.19022 4.0076 9.39928 3.482 13.6339 2.95215Z" fill="#001219"/>
<path d="M0.974609 15.4233C5.20494 15.4233 9.41045 15.4233 13.6301 15.4233C13.6301 18.9699 13.6301 22.5037 13.6301 26.0559C9.40549 25.5275 5.19714 25.0019 0.974609 24.4742C0.974609 21.4575 0.974609 18.4514 0.974609 15.4233Z" fill="#001219"/>
</g>
<defs>
<clipPath id="clip0_747_2625">
<rect width="28.9832" height="27.1844" fill="white" transform="translate(0.972656 0.912109)"/>
</clipPath>
</defs>
</svg>
