<svg width="41" height="40" viewBox="0 0 41 40" fill="none" xmlns="http://www.w3.org/2000/svg">
<path fill-rule="evenodd" clip-rule="evenodd" d="M0 20.0813C0 9.05347 8.99374 0.0996094 20.0614 0.0996094C25.6052 0.0996094 30.6306 2.31315 34.26 5.94255C37.8894 9.57195 40.1428 14.5574 40.1428 20.0813C40.1428 25.6051 37.8894 30.5906 34.26 34.22C30.6306 37.8494 25.5853 40.0829 20.0614 40.0829C14.5376 40.0829 9.51223 37.8494 5.88282 34.22C2.25342 30.5906 0 25.6051 0 20.0813ZM20.3007 20.1411L24.7478 25.2064C25.4457 25.9841 24.8874 27.2005 23.8304 27.1606H23.3917H20.1412H16.8907H16.2924C15.6344 27.1606 15.0959 26.6222 15.0959 25.9641V20.0614V14.1586C15.0959 13.5005 15.6344 12.9621 16.2924 12.9621H16.6913H16.8907H19.9617H23.0527C24.1296 12.9621 24.668 14.2783 23.8903 15.036L20.3606 18.486C19.9019 18.9247 19.882 19.6625 20.3007 20.1411Z" fill="black"/>
</svg>
